<?xml version="1.0" encoding="utf-8"?>
<!-- Generator: Adobe Illustrator 18.1.1, SVG Export Plug-In . SVG Version: 6.00 Build 0)  -->
<svg version="1.1" id="Layer_1" xmlns="http://www.w3.org/2000/svg" xmlns:xlink="http://www.w3.org/1999/xlink" x="0px" y="0px"
	 viewBox="-409 211 140 140" enable-background="new -409 211 140 140" xml:space="preserve">
<g>
	<path fill="#2A5E86" d="M-365.9,299.5L-365.9,299.5c-1.6,0-2.9,0.8-2.9,2.8v0.1c0,2.1,1.3,2.8,2.8,2.8h0.1c2.1,0,2.8-1.3,2.8-2.8
		v-0.1C-363,300.4-364.3,299.5-365.9,299.5z"/>
	<polygon fill="#2A5E86" points="-322.2,303.3 -319.8,303.3 -321,300.2 	"/>
	<path fill="#2A5E86" d="M-344.1,299.5c-0.3,0-0.9,0-0.9,0v3c0.1,0,0.6,0.1,0.9,0.1c1.6,0,3-0.1,3-1.5S-342.5,299.5-344.1,299.5z"/>
	<path fill="#2A5E86" d="M-277.7,247c-3.1-21.1-11-25.9-36.3-27.8c-6.6-0.5-15.5-0.9-24.4-0.9c-14.1,0-25.2,1.2-33.9,2.2
		c-20.2,2.5-27,8.6-29.1,33.5c-0.6,7.1-0.9,16.3-1,26.4c-0.1,7.8,0.2,15.7,0.6,21.8c2.7,33.4,9.2,39.9,39.6,41
		c7.1,0.3,12.6,0.5,22.7,0.5c10.7,0,19.7-0.3,27.1-0.9c26.9-2.1,33.7-7.3,35.8-31.2c0.7-8,0.9-17.9,0.9-29.7
		C-275.6,268.3-276.5,255.3-277.7,247z M-374.2,305.6c-0.8,0.9-2,1.5-3.3,1.5c-2.5,0-4.6-2-4.6-4.6s2-4.6,4.6-4.6
		c1.2,0,2.3,0.5,3.1,1.2c0.7,0.7,0.1,1.4,0.1,1.4s-0.7,0.4-1.2-0.1c-0.5-0.5-1.2-0.8-2-0.8c-1.6,0-2.9,1.3-2.9,2.9s1.3,2.9,2.9,2.9
		c0.8,0,1.6-0.3,2.1-0.9c0.7-0.7,1.3-0.3,1.3-0.3S-373.5,304.8-374.2,305.6z M-376.4,277.8c-1,1.4-2.4,0.6-2.4,0.6s-1.3-0.8-0.2-2.3
		c0.9-1.3,2.4-3.4,3.6-5.6c1.4-2.4,2.5-4.8,3.2-6.2c0.7-1.6,1.9-1,2.1-0.9c0.3,0.1,1.1,0.8,0.5,2.2c-0.6,1.4-1.7,3.7-3,6.1
		C-373.9,274.1-375.4,276.4-376.4,277.8z M-361.3,303.1c-0.2,2.1-1.7,3.7-3.9,3.9c0,0-0.3,0-0.6,0c-0.4,0-0.7,0-0.7,0
		c-2.2-0.2-3.7-1.9-3.9-3.9c0,0,0-0.4,0-0.7c0-0.3,0-0.7,0-0.7c0.3-2.2,1.7-3.8,3.9-3.9l0.7,0l0.7,0c2.2,0.1,3.7,1.7,3.9,4
		c0,0,0,0.4,0,0.7C-361.3,302.8-361.3,303.1-361.3,303.1z M-360.9,283.9c0,1-0.4,2.7-1.8,2.7c-0.9,0-3-1.1-4.5-1.8
		c-1.2-0.6-1.3-1.5-1-2.2c0.3-0.7,1.3-0.9,2-0.6c1.1,0.5,2.3,0.9,2.3,0.9s0-24.5,0-25.9c0-1.6,1.5-1.5,1.5-1.5s1.6,0,1.6,1.5V283.9z
		 M-350.5,303.4c0,1.8-0.8,3.6-3.7,3.6c-2.9,0-3.8-1.8-3.8-3.6V299c0-0.9,0.8-0.9,0.8-0.9s0.8-0.1,0.8,0.9v3.5
		c0,1.6,0.2,2.8,2.1,2.8s2.1-1.2,2.1-2.8V299c0-0.9,0.8-0.9,0.8-0.9s0.8-0.1,0.8,0.9V303.4z M-349.5,277c-0.7-1.5-1.7-3.5-2.8-5.6
		c-1.1-2.1-2.5-4.3-3.3-5.5c-1-1.5,0.2-2.4,0.2-2.4s1.2-0.8,2.3,0.8c0.8,1.2,2.2,3.3,3.4,5.4c1.2,2.1,2.3,4.2,3,5.7
		c1.2,2.2-0.4,2.8-0.4,2.8S-348.5,279-349.5,277z M-339.7,307c0,0-0.8,0.4-1.2-0.2c-0.3-0.5-1.5-2.2-1.9-2.7
		c-0.7,0.1-1.4,0.1-2.2,0.1c0,0,0,0.1,0,0.1c0,0,0,1.3,0,2.1c0,0.8-0.8,0.8-0.8,0.8s-0.8,0-0.8-0.8c0-0.8,0-4.8,0-6.9
		c0-1.5,1-1.5,1.6-1.5c3,0,5.5-0.1,5.5,3c0,1.5-0.6,2.3-1.6,2.7c0.5,0.7,1.2,1.8,1.5,2.2C-339.2,306.5-339.7,307-339.7,307z
		 M-323.1,261.7c0.5-1.4,1.4-3.5,1.8-4.5c0.4-0.9,1.2-0.8,1.7-0.6c0.5,0.2,1.1,0.8,0.9,1.5c0,0.1-0.1,0.3-0.2,0.5l5.3,0V256
		c0-1.4,1.4-1.5,1.4-1.5s1.4,0,1.4,1.5v2.4l6.7,0c0.2-0.4,0.3-0.8,0.4-1.1c0.4-1.1,1.7-0.6,1.7-0.6s1.2,0.6,0.8,1.7
		c-0.3,0.9-1.1,2.8-1.6,4c-0.5,1.3-1.9,0.7-1.9,0.7s-1.1-0.7-0.6-1.9c0-0.1,0.1-0.2,0.1-0.3h-14.7c-0.3,0.7-0.6,1.5-0.9,2
		c-0.5,1.1-1.8,0.6-1.8,0.6S-323.5,262.9-323.1,261.7z M-317.9,265.7c2.7,0,8.5,0,9.8,0c1.6,0,1.1-0.5,2.4-0.5s1.8,0.8,1.8,1.5
		c0,0.7-0.4,1.5-2.3,1.5h-11.8c-1.6,0-1.5-1.3-1.5-1.3S-319.6,265.7-317.9,265.7z M-328.3,305.6c-0.8,0.9-2,1.5-3.3,1.5
		c-2.5,0-4.6-2-4.6-4.6s2-4.6,4.6-4.6c1.2,0,2.3,0.5,3.1,1.2c0.7,0.7,0.1,1.4,0.1,1.4s-0.7,0.4-1.2-0.1c-0.5-0.5-1.2-0.8-2-0.8
		c-1.6,0-2.9,1.3-2.9,2.9s1.3,2.9,2.9,2.9c0.8,0,1.6-0.3,2.1-0.9c0.7-0.7,1.3-0.3,1.3-0.3S-327.6,304.8-328.3,305.6z M-326.9,278.8
		c-1.3,0.9-2.1-0.4-2.1-0.4s-0.6-1.1,0.5-2.1c1.1-0.9,2.4-2.4,2.4-4.5c0-1.9-1.7-3.5-3.2-4.4c-0.9-0.6-0.7-1.6-0.5-2.1
		c0.5-1.5,1.4-4,2.1-6.1h-3.5v26.1c0,1.6-1.4,1.5-1.4,1.5s-1.4,0-1.4-1.5v-28.8c0-1.3,1.3-1.3,1.3-1.3s1.5,0,1.5,1.4v0.1h4.4
		c0.1-0.2,0.1-0.3,0.2-0.5c0.4-1.3,1.8-0.7,1.8-0.7s1.3,0.5,0.9,1.6c-0.8,2.2-3,8.4-3.1,8.6c0.7,0.5,3.8,2.2,3.8,6.4
		C-323.3,275.5-325.2,277.7-326.9,278.8z M-317.4,306.8c-0.9,0.4-1.2-0.4-1.2-0.4l-0.7-1.5l-3.4,0l-0.7,1.5c0,0-0.4,0.7-1.2,0.4
		c-0.7-0.3-0.4-1.1-0.4-1.1s2.1-5.2,2.8-6.9c0.4-1.1,1.2-1,1.2-1s0.8-0.1,1.3,1c0.7,1.7,2.7,6.8,2.7,6.8S-316.6,306.4-317.4,306.8z
		 M-310.3,306.9c-1.2,0-2.2-0.4-2.8-0.8c-0.9-0.6-0.5-1.3-0.4-1.4c0.2-0.2,0.6-0.4,1.2,0c0.4,0.3,1.1,0.6,1.9,0.6
		c1.4,0,1.6-0.6,1.6-1.1c0-1.4-4.8-1.1-4.8-3.6c0-1.5,1.3-2.8,3-2.8c1.5,0,2.4,0.7,2.8,1.2c0.4,0.5,0.2,1-0.1,1.2s-0.7,0.4-1.2-0.1
		c-0.3-0.3-0.7-0.6-1.5-0.6c-1.2,0-1.3,0.9-1.3,1c0,1.2,4.7,0.8,4.7,3.6C-307.1,306.2-308.9,306.9-310.3,306.9z M-307.8,286.4
		c-2-0.2-2.3-1.1-2.3-3.1v-8.2h-3.8c-0.4,6.5-3.9,9.1-6.3,10.6c-1.5,1-2.9,1.2-3.6,0.3c-0.3-0.5-0.5-1.8,0.8-2.4
		c4.2-1.9,5.8-3.8,6.2-8.5h-3.1c-1.6,0-1.5-1.3-1.5-1.3s-0.1-1.3,1.5-1.3h15c0.8,0,0.9-0.5,2-0.5c1,0,1.8,0.6,1.8,1.4
		s-0.4,1.7-1.7,1.7h-4.3v7.3c0,0.9,0,1.3,1.2,1.3h2.6c0.8,0,0.3-1,0.4-2.1c0-1.5,1.4-1.5,1.4-1.5s1.8,0,1.7,1.8
		c-0.2,2.8-0.6,4.6-3.7,4.6h-3C-307,286.4-307.4,286.4-307.8,286.4z M-296.7,306.8c-0.9,0.4-1.2-0.4-1.2-0.4l-0.7-1.5l-3.4,0
		l-0.7,1.5c0,0-0.4,0.7-1.2,0.4c-0.7-0.3-0.4-1.1-0.4-1.1s2.1-5.2,2.8-6.9c0.4-1.1,1.2-1,1.2-1s0.8-0.1,1.3,1
		c0.7,1.7,2.7,6.8,2.7,6.8S-295.8,306.4-296.7,306.8z"/>
	<polygon fill="#2A5E86" points="-301.4,303.3 -299,303.3 -300.2,300.2 	"/>
</g>
</svg>
