<svg xmlns="http://www.w3.org/2000/svg" xmlns:xlink="http://www.w3.org/1999/xlink" preserveAspectRatio="xMidYMid" width="15" height="15" viewBox="0 0 30 30">
  <defs>
    <style>

      .cls-2 {
        fill: #ffffff;
      }
    </style>
  </defs>
  <path d="M16.491,10.053 C16.491,13.581 13.614,16.451 10.078,16.451 C6.542,16.451 3.665,13.581 3.665,10.053 C3.665,6.526 6.542,3.656 10.078,3.656 C13.614,3.656 16.491,6.526 16.491,10.053 ZM30.000,28.173 C30.000,27.687 29.800,27.215 29.470,26.887 C29.470,26.887 18.381,15.751 18.381,15.751 C19.540,14.080 20.156,12.081 20.156,10.053 C20.156,4.498 15.647,0.000 10.078,0.000 C4.509,0.000 0.000,4.498 0.000,10.053 C0.000,15.608 4.509,20.107 10.078,20.107 C12.111,20.107 14.115,19.492 15.790,18.336 C15.790,18.336 26.879,29.457 26.879,29.457 C27.209,29.801 27.681,30.000 28.168,30.000 C29.170,30.000 30.000,29.172 30.000,28.173 Z" id="path-1" class="cls-2" fill-rule="evenodd"/>
</svg>
