<svg xmlns="http://www.w3.org/2000/svg" xmlns:xlink="http://www.w3.org/1999/xlink" preserveAspectRatio="xMidYMid" width="15.5" height="15.5" viewBox="0 0 31 31">
  <defs>
    <style>

      .cls-2 {
        fill: #ffffff;
      }
    </style>
  </defs>
  <path d="M30.138,31.242 C30.138,31.242 24.409,31.281 14.875,31.281 C5.341,31.281 -0.004,31.242 -0.004,31.242 C-0.004,31.242 -0.133,28.672 0.909,26.761 C1.566,25.556 4.186,25.268 6.918,23.992 C9.403,22.831 12.048,20.622 12.061,20.643 C12.067,20.654 12.715,19.321 11.981,16.888 C8.899,14.810 8.163,9.673 8.163,6.749 C8.163,3.024 11.253,0.001 15.061,0.001 C18.870,0.001 21.960,3.024 21.960,6.749 C21.960,9.671 21.226,14.798 18.153,16.881 C17.583,18.276 18.067,20.654 18.073,20.643 C18.086,20.622 20.731,22.831 23.216,23.992 C25.948,25.268 28.568,25.556 29.225,26.761 C30.267,28.672 30.138,31.242 30.138,31.242 Z" id="path-1" class="cls-2" fill-rule="evenodd"/>
</svg>
