<svg xmlns="http://www.w3.org/2000/svg" xmlns:xlink="http://www.w3.org/1999/xlink" preserveAspectRatio="xMidYMid" width="20.5" height="16.5" viewBox="0 0 41 33">
  <defs>
    <style>

      .cls-3 {
        fill: #e70c22;
      }

      .cls-4 {
        fill: #f4990b;
      }

      .cls-5 {
        fill: #000000;
      }
    </style>
  </defs>
  <g id="weibosvg">
    <path d="M28.016,20.972 C28.440,25.325 23.440,29.365 16.810,30.035 C10.180,30.682 4.465,27.691 4.041,23.338 C3.616,18.985 8.617,14.944 15.247,14.274 C21.877,13.627 27.592,16.619 28.016,20.972 ZM34.892,21.061 C34.892,18.025 32.347,16.306 30.048,15.591 C29.489,15.413 29.110,15.301 29.400,14.565 C30.025,12.958 30.092,11.573 29.400,10.591 C28.105,8.738 24.556,8.827 20.493,10.546 C20.493,10.524 19.221,11.105 19.533,10.077 C20.158,8.068 20.069,6.372 19.087,5.413 C16.877,3.202 11.005,5.479 5.960,10.524 C2.188,14.296 -0.000,18.293 -0.000,21.753 C-0.000,28.383 8.483,32.401 16.787,32.401 C27.659,32.401 34.892,26.083 34.892,21.061 Z" id="path-1" class="cls-3" fill-rule="evenodd"/>
    <path d="M33.240,7.131 C31.967,5.702 30.070,5.166 28.329,5.546 C27.614,5.702 27.168,6.395 27.324,7.109 C27.458,7.823 28.172,8.269 28.887,8.113 C28.887,8.113 28.887,8.113 28.887,8.113 C29.735,7.935 30.650,8.202 31.275,8.894 C31.900,9.587 32.079,10.524 31.811,11.372 C31.811,11.372 31.811,11.372 31.811,11.372 C31.588,12.065 31.967,12.801 32.659,13.024 C33.352,13.247 34.088,12.868 34.311,12.176 C34.870,10.479 34.512,8.538 33.240,7.131 ZM37.280,3.492 C34.646,0.568 30.784,-0.526 27.190,0.233 C27.190,0.233 27.190,0.233 27.190,0.233 C26.364,0.412 25.828,1.215 26.007,2.041 C26.186,2.867 27.012,3.403 27.838,3.224 C30.382,2.689 33.128,3.470 35.003,5.546 C36.879,7.600 37.370,10.435 36.566,12.913 C36.566,12.913 36.566,12.913 36.566,12.913 C36.321,13.716 36.767,14.565 37.571,14.833 C38.374,15.100 39.223,14.654 39.490,13.850 C39.490,13.850 39.490,13.850 39.490,13.850 C40.607,10.368 39.915,6.395 37.280,3.492 Z" id="path-2" class="cls-4" fill-rule="evenodd"/>
    <path d="M15.068,24.856 C14.421,25.883 13.037,26.329 12.010,25.860 C11.005,25.392 10.693,24.208 11.340,23.204 C11.965,22.222 13.305,21.775 14.309,22.200 C15.359,22.646 15.694,23.829 15.068,24.856 ZM17.167,22.155 C16.944,22.556 16.430,22.735 16.028,22.579 C15.626,22.400 15.515,21.976 15.738,21.574 C15.961,21.196 16.452,21.017 16.854,21.150 C17.256,21.306 17.390,21.753 17.167,22.155 ZM21.051,24.543 C22.391,21.552 20.739,18.472 17.457,17.623 C14.309,16.819 10.760,18.382 9.376,21.150 C7.992,23.985 9.331,27.134 12.523,28.160 C15.827,29.231 19.712,27.580 21.051,24.543 Z" id="path-3" class="cls-5" fill-rule="evenodd"/>
  </g>
</svg>
